# xmcd CD database file
#
# Track frame offsets:
#	150
#	22860
#	43724
#	64972
#	85868
#	101434
#	128204
#	149138
#	166343
#	190919
#	213751
#
# Disc length: 3050 seconds
#
# Revision: 0
# Processed by: cddbd v1.5.2PL0 Copyright (c) Steve Scherf et al.
# Submitted via: CDex 1.70beta3
#
DISCID=970be80b
DTITLE=CHEMISTRY - オン・ザ・ウェイ・ホーム
DYEAR=2014
DGENRE=avex
TTITLE0=やさしさで溢れるように
TTITLE1=ORION
TTITLE2=Flavor Of Life
TTITLE3=三日月
TTITLE4=やさしいキスをして
TTITLE5=DEAR... again
TTITLE6=リフレインが叫んでる
TTITLE7=かたちあるもの
TTITLE8=I'm proud
TTITLE9=HOME
TTITLE10=きよしこのよる
EXTD=YEAR: 2014
EXTT0=
EXTT1=
EXTT2=
EXTT3=
EXTT4=
EXTT5=
EXTT6=
EXTT7=
EXTT8=
EXTT9=
EXTT10=
PLAYORDER=
